<?xml version="1.0" standalone="no"?>
<!DOCTYPE svg PUBLIC "-//W3C//DTD SVG 20010904//EN"
 "http://www.w3.org/TR/2001/REC-SVG-20010904/DTD/svg10.dtd">
<svg version="1.0" xmlns="http://www.w3.org/2000/svg"
 width="1117.000000pt" height="1117.000000pt" viewBox="0 0 1117.000000 1117.000000"
 preserveAspectRatio="xMidYMid meet">
<metadata>
Created by potrace 1.14, written by Peter Selinger 2001-2017
</metadata>
<g transform="translate(0.000000,1117.000000) scale(0.100000,-0.100000)"
fill="#000000" stroke="none">
<path d="M0 5585 l0 -5585 5585 0 5585 0 0 5585 0 5585 -5585 0 -5585 0 0
-5585z m6000 3561 c618 -77 1169 -290 1667 -643 690 -489 1197 -1235 1398
-2057 75 -306 100 -522 100 -861 0 -430 -55 -766 -185 -1149 -178 -521 -444
-954 -830 -1350 -594 -609 -1331 -968 -2195 -1068 -143 -16 -597 -16 -740 0
-713 83 -1332 339 -1882 778 -215 173 -507 481 -664 704 -363 514 -577 1076
-651 1715 -16 143 -16 597 0 740 115 995 594 1858 1363 2457 209 162 402 282
651 402 399 194 811 306 1268 346 141 12 558 4 700 -14z"/>
</g>
</svg>
