<?xml version="1.0" standalone="no"?>
<!DOCTYPE svg PUBLIC "-//W3C//DTD SVG 20010904//EN"
 "http://www.w3.org/TR/2001/REC-SVG-20010904/DTD/svg10.dtd">
<svg version="1.0" xmlns="http://www.w3.org/2000/svg"
 width="1117.000000pt" height="1117.000000pt" viewBox="0 0 1117.000000 1117.000000"
 preserveAspectRatio="xMidYMid meet">
<metadata>
Created by potrace 1.14, written by Peter Selinger 2001-2017
</metadata>
<g transform="translate(0.000000,1117.000000) scale(0.100000,-0.100000)"
fill="#000000" stroke="none">
<path d="M0 5585 l0 -5585 5585 0 5585 0 0 5585 0 5585 -5585 0 -5585 0 0
-5585z m6045 3556 c946 -128 1787 -608 2367 -1352 162 -209 282 -402 402 -651
174 -358 280 -719 332 -1133 26 -198 26 -645 1 -840 -126 -973 -603 -1819
-1358 -2407 -209 -162 -402 -282 -651 -402 -358 -174 -719 -280 -1133 -332
-198 -26 -645 -26 -840 -1 -973 126 -1819 603 -2407 1358 -162 209 -282 402
-402 651 -174 358 -280 719 -332 1133 -26 198 -26 645 -1 840 126 973 603
1819 1358 2407 209 162 402 282 651 402 409 199 834 312 1313 350 131 10 555
-4 700 -23z"/>
</g>
</svg>
